<svg width="64" height="64" viewBox="0 0 64 64" fill="none" xmlns="http://www.w3.org/2000/svg">
  <rect width="64" height="64" rx="18" fill="#050505"/>
  <path d="M20 36.5C20 43.4 25.3 48 32.7 48C40.2 48 45 44 45 38.3C45 33.2 41.3 30.6 34.1 29.3L30.2 28.6C26.7 28 25.3 26.9 25.3 24.8C25.3 22.4 27.6 20.9 31.2 20.9C35.2 20.9 37.4 22.5 38.1 25.8H44.1C43.5 19.8 38.7 16 31.4 16C24.3 16 19.2 19.8 19.2 25.1C19.2 30.1 22.8 32.8 29.5 34L33.4 34.7C37.4 35.5 38.8 36.6 38.8 38.8C38.8 41.4 36.5 43 32.7 43C28.5 43 26 40.9 25.8 36.5H20Z" fill="white"/>
  <path d="M48 17.5C48 20 46 22 43.5 22C41 22 39 20 39 17.5C39 15 41 13 43.5 13C46 13 48 15 48 17.5Z" fill="white"/>
</svg>
